#!OML:ASF H:\Not Pregnant\Project 1\Capture day 1\Session 1\non-pregnant.ASF
:FULLY-SPECIFIED
:DEGREES
1327
root 2.53815 1.46977 17.3736 -83.1845 -17.1409 20.7916
lowerback 17.6578 -9.00475 14.0933
upperback 10.2409 -10.1902 -0.0991314
thorax -0.815784 -4.78499 -5.86749
lowerneck 34.8251 -2.71054 -38.1761
upperneck 2.61038 -19.329 31.0565
head 2.72549 -12.7126 17.6385
rclavicle -6.36111e-014 -4.77083e-014
rhumerus -13.7195 10.2253 -79.431
rradius 53.1105
rwrist 14.906
rhand -20.183 -11.2373
rfingers 7.12502
rthumb 6.16318 -41.1276
lclavicle -6.36111e-014 -4.77083e-014
lhumerus 12.245 -34.5678 81.3568
lradius 52.6102
lwrist 13.4447
lhand 1.06451 -20.9115
lfingers 7.12502
lthumb 26.6096 7.2387
rfemur -47.5383 -5.61383 20.6691
rtibia 66.9377
rfoot 19.0228 9.025
rtoes -8.54443
lfemur -23.686 -15.8018 -5.68832
ltibia 44.3584
lfoot 27.0024 -18.064
ltoes 12.9283
1328
root 2.52663 1.48487 17.3889 -82.0746 -18.9212 20.4591
lowerback 17.3193 -9.16996 15.9318
upperback 10.0756 -10.149 0.405172
thorax -0.943896 -4.71325 -6.33415
lowerneck 34.7056 -2.85696 -38.0443
upperneck 2.39731 -19.3503 30.9429
head 2.65482 -12.684 17.5519
rclavicle -4.77083e-014 -5.40694e-014
rhumerus -14.384 10.4084 -79.3405
rradius 54.134
rwrist 14.7994
rhand -21.3407 -11.559
rfingers 7.12502
rthumb 5.04542 -41.4789
lclavicle -4.77083e-014 -5.40694e-014
lhumerus 12.5506 -34.3851 80.7754
lradius 52.9072
lwrist 13.6609
lhand 1.52781 -20.4579
lfingers 7.12502
lthumb 27.0529 7.62425
rfemur -47.9401 -5.95595 23.0032
rtibia 65.9538
rfoot 18.9554 8.79081
rtoes -9.10997
lfemur -26.0496 -15.0815 -3.32989
ltibia 46.7197
lfoot 26.0333 -18.1103
ltoes 11.9376
1329
root 2.51295 1.49643 17.4084 -81.3437 -19.441 20.3627
lowerback 17.3118 -9.20475 16.372
upperback 9.98817 -10.1092 0.575137
thorax -1.04898 -4.68798 -6.38531
lowerneck 34.5581 -2.99791 -37.9236
upperneck 2.21316 -19.3644 30.8238
head 2.59401 -12.6514 17.4634
rclavicle 1.17681e-013 6.36111e-015
rhumerus -15.0253 10.5827 -79.2725
rradius 55.1179
rwrist 14.8531
rhand -22.4667 -11.8212
rfingers 7.12502
rthumb 3.95814 -41.7642
lclavicle 1.17681e-013 6.36111e-015
lhumerus 12.8491 -34.1682 80.1427
lradius 53.2587
lwrist 13.936
lhand 1.92501 -20.0339
lfingers 7.12502
lthumb 27.4329 7.9887
rfemur -48.3179 -6.41058 23.9307
rtibia 65.4346
rfoot 18.8885 8.7048
rtoes -9.37614
lfemur -27.8387 -14.5724 -2.52326
ltibia 48.7844
lfoot 25.1048 -17.8865
ltoes 10.8446
1330
root 2.49835 1.50621 17.4292 -80.81 -19.4312 20.3978
lowerback 17.476 -9.18637 16.1987
upperback 9.94288 -10.0689 0.600391
thorax -1.15046 -4.68151 -6.25247
lowerneck 34.3924 -3.13573 -37.8059
upperneck 2.05361 -19.3735 30.6907
head 2.53975 -12.6157 17.3684
rclavicle -2.8625e-014 6.36111e-015
rhumerus -15.6541 10.7379 -79.2186
rradius 56.0731
rwrist 15.0556
rhand -23.3887 -12.0275
rfingers 7.12502
rthumb 3.06771 -41.9852
lclavicle -2.8625e-014 6.36111e-015
lhumerus 13.1356 -33.9206 79.4752
lradius 53.6584
lwrist 14.2741
lhand 2.24714 -19.6381
lfingers 7.12502
lthumb 27.7409 8.33523
rfemur -48.7078 -6.92507 24.2809
rtibia 65.2485
rfoot 18.8283 8.67422
rtoes -9.62978
lfemur -29.3173 -14.1548 -2.37758
ltibia 50.65
lfoot 24.2568 -17.6081
ltoes 9.56954
1331
root 2.4831 1.51472 17.4501 -80.3489 -19.3399 20.4762
lowerback 17.7075 -9.15551 15.8967
upperback 9.92253 -10.0247 0.591808
thorax -1.24845 -4.67588 -6.08333
lowerneck 34.2146 -3.27823 -37.6731
upperneck 1.9104 -19.3809 30.541
head 2.48781 -12.5776 17.2636
rclavicle -1.36764e-013 1.04958e-013
rhumerus -16.266 10.8533 -79.1813
rradius 56.9937
rwrist 15.4062
rhand -24.1136 -12.1708
rfingers 7.12502
rthumb 2.36767 -42.1374
lclavicle -1.36764e-013 1.04958e-013
lhumerus 13.4204 -33.6531 78.7651
lradius 54.099
lwrist 14.6813
lhand 2.49398 -19.2777
lfingers 7.12502
lthumb 27.9769 8.65741
rfemur -49.1334 -7.45494 24.5579
rtibia 65.2875
rfoot 18.8212 8.51865
rtoes -9.60044
lfemur -30.6737 -13.7322 -2.33918
ltibia 52.4176
lfoot 23.6604 -17.3015
ltoes 8.36514
1332
root 2.46777 1.52243 17.4709 -79.9021 -19.1108 20.6063
lowerback 17.9649 -9.0995 15.4155
upperback 9.90328 -9.97396 0.547497
thorax -1.34293 -4.67213 -5.8573
lowerneck 34.0281 -3.41706 -37.5406
upperneck 1.78171 -19.3838 30.3856
head 2.43919 -12.5374 17.1567
rclavicle 3.18055e-014 3.81667e-014
rhumerus -16.8649 10.9377 -79.1488
rradius 57.8866
rwrist 15.8975
rhand -24.5454 -12.2614
rfingers 7.12502
rthumb 1.95065 -42.2322
lclavicle 3.18055e-014 3.81667e-014
lhumerus 13.6919 -33.356 78.0346
lradius 54.5727
lwrist 15.154
lhand 2.6608 -18.9695
lfingers 7.12502
lthumb 28.1364 8.93947
rfemur -49.6461 -8.00495 24.698
rtibia 65.4795
rfoot 18.9139 8.28228
rtoes -9.37971
lfemur -32.013 -13.3103 -2.45838
ltibia 54.182
lfoot 23.1912 -16.9781
ltoes 7.43824
1333
root 2.45254 1.52925 17.4919 -79.4419 -18.8571 20.7704
lowerback 18.2301 -9.02764 14.8654
upperback 9.88065 -9.91501 0.501732
thorax -1.4354 -4.66603 -5.59739
lowerneck 33.8293 -3.54427 -37.4267
upperneck 1.66879 -19.3785 30.2363
head 2.39667 -12.4942 17.0557
rclavicle -3.18055e-015 9.54166e-015
rhumerus -17.4417 11.0052 -79.1122
rradius 58.7443
rwrist 16.5056
rhand -24.6789 -12.3052
rfingers 7.12502
rthumb 1.82171 -42.2772
lclavicle -3.18055e-015 9.54166e-015
lhumerus 13.9512 -33.0202 77.292
lradius 55.0713
lwrist 15.6965
lhand 2.75618 -18.7248
lfingers 7.12502
lthumb 28.2275 9.16913
rfemur -50.2404 -8.55058 24.8233
rtibia 65.7702
rfoot 19.1046 7.97618
rtoes -9.03164
lfemur -33.3881 -12.8565 -2.59841
ltibia 55.9923
lfoot 22.7966 -16.7363
ltoes 6.62947
1334
root 2.43884 1.53562 17.5134 -78.9603 -18.7411 20.9322
lowerback 18.5172 -8.96484 14.4322
upperback 9.84882 -9.84568 0.492239
thorax -1.55378 -4.65234 -5.35905
lowerneck 33.6303 -3.65762 -37.3306
upperneck 1.56691 -19.3657 30.0972
head 2.35805 -12.4494 16.9633
rclavicle -6.04305e-014 2.8625e-014
rhumerus -18.0054 11.0665 -79.0652
rradius 59.5781
rwrist 17.204
rhand -24.5262 -12.3033
rfingers 7.12502
rthumb 1.96913 -42.2739
lclavicle -6.04305e-014 2.8625e-014
lhumerus 14.1846 -32.6511 76.5546
lradius 55.593
lwrist 16.3006
lhand 2.78022 -18.5468
lfingers 7.12502
lthumb 28.2505 9.3434
rfemur -50.8788 -9.07845 25.1023
rtibia 66.1138
rfoot 19.3983 7.48665
rtoes -8.15423
lfemur -34.8182 -12.3483 -2.57608
ltibia 57.8746
lfoot 22.3323 -16.6569
ltoes 6.02054
1335
root 2.42662 1.54233 17.5353 -78.4415 -18.7197 21.0882
lowerback 18.7885 -8.91023 14.0936
upperback 9.81134 -9.77542 0.499574
thorax -1.67823 -4.63516 -5.15423
lowerneck 33.4346 -3.74937 -37.2561
upperneck 1.47532 -19.338 29.9838
head 2.32231 -12.4008 16.8884
rclavicle 1.43125e-013 -1.27222e-014
rhumerus -18.5542 11.1326 -79.0239
rradius 60.3919
rwrist 17.9738
rhand -24.2678 -12.2879
rfingers 7.12502
rthumb 2.21877 -42.2562
lclavicle 1.43125e-013 -1.27222e-014
lhumerus 14.3973 -32.2486 75.8087
lradius 56.1306
lwrist 16.9604
lhand 2.74677 -18.4223
lfingers 7.12502
lthumb 28.2186 9.47313
rfemur -51.5722 -9.59768 25.4879
rtibia 66.4949
rfoot 19.7535 6.91483
rtoes -6.98032
lfemur -36.317 -11.7925 -2.43897
ltibia 59.8303
lfoot 21.705 -16.7652
ltoes 5.52671
1336
root 2.41632 1.55023 17.5573 -77.8722 -18.8807 21.2173
lowerback 19.034 -8.87498 13.9559
upperback 9.76438 -9.69992 0.541454
thorax -1.81654 -4.60981 -5.0224
lowerneck 33.2575 -3.80988 -37.2115
upperneck 1.3925 -19.2923 29.9135
head 2.28891 -12.3495 16.8416
rclavicle 5.725e-014 -3.49861e-014
rhumerus -19.0999 11.2069 -78.9887
rradius 61.1944
rwrist 18.7746
rhand -23.8698 -12.2299
rfingers 7.12502
rthumb 2.60312 -42.1938
lclavicle 5.725e-014 -3.49861e-014
lhumerus 14.5857 -31.8298 75.0551
lradius 56.6858
lwrist 17.6669
lhand 2.662 -18.317
lfingers 7.12502
lthumb 28.1375 9.59183
rfemur -52.3057 -10.0948 26.0647
rtibia 66.8904
rfoot 20.1088 6.5791
rtoes -6.25827
lfemur -37.8909 -11.1616 -2.09079
ltibia 61.8556
lfoot 20.9862 -17.0322
ltoes 5.1246
1337
root 2.4073 1.55949 17.5799 -77.2846 -19.0652 21.3497
lowerback 19.2701 -8.84094 13.8504
upperback 9.71167 -9.62192 0.578744
thorax -1.96086 -4.5823 -4.91413
lowerneck 33.1055 -3.85412 -37.1771
upperneck 1.30816 -19.2396 29.8591
head 2.25285 -12.2984 16.8069
rclavicle 6.04305e-014 -1.11319e-013
rhumerus -19.6499 11.2987 -78.9622
rradius 61.9938
rwrist 19.5861
rhand -23.4236 -12.1394
rfingers 7.12502
rthumb 3.03404 -42.0975
lclavicle 6.04305e-014 -1.11319e-013
lhumerus 14.7478 -31.3955 74.3026
lradius 57.2493
lwrist 18.3849
lhand 2.54093 -18.2334
lfingers 7.12502
lthumb 28.0218 9.69435
rfemur -53.0713 -10.5887 26.6498
rtibia 67.3191
rfoot 20.5241 6.38337
rtoes -5.70756
lfemur -39.4898 -10.4839 -1.72373
ltibia 63.9188
lfoot 20.3055 -17.3363
ltoes 4.93504
1338
root 2.39888 1.57063 17.6024 -76.6835 -19.1876 21.503
lowerback 19.4864 -8.79719 13.6855
upperback 9.65448 -9.54596 0.59166
thorax -2.09832 -4.55679 -4.80244
lowerneck 32.9683 -3.89128 -37.1507
upperneck 1.22887 -19.1882 29.8025
head 2.21784 -12.2496 16.7732
rclavicle 1.52667e-013 4.45278e-014
rhumerus -20.2038 11.4151 -78.9484
rradius 62.7937
rwrist 20.3868
rhand -22.9672 -12.0181
rfingers 7.12502
rthumb 3.47475 -41.9695
lclavicle 1.52667e-013 4.45278e-014
lhumerus 14.8862 -30.9494 73.5468
lradius 57.8203
lwrist 19.0893
lhand 2.39031 -18.1577
lfingers 7.12502
lthumb 27.8778 9.79349
rfemur -53.8734 -11.0887 27.1433
rtibia 67.7886
rfoot 20.9845 6.4383
rtoes -5.59132
lfemur -41.0929 -9.77487 -1.44055
ltibia 65.9919
lfoot 19.6719 -17.7046
ltoes 4.70338
1339
root 2.39043 1.58355 17.6246 -76.0719 -19.2669 21.6765
lowerback 19.675 -8.74123 13.4749
upperback 9.60018 -9.46891 0.58305
thorax -2.21729 -4.53048 -4.69395
lowerneck 32.8435 -3.93726 -37.1175
upperneck 1.1468 -19.1504 29.7294
head 2.18304 -12.2072 16.7302
rclavicle 2.22639e-014 -9.54166e-015
rhumerus -20.7555 11.5384 -78.9527
rradius 63.5978
rwrist 21.185
rhand -22.4901 -11.8537
rfingers 7.12502
rthumb 3.93546 -41.7971
lclavicle 2.22639e-014 -9.54166e-015
lhumerus 15.0185 -30.5036 72.7721
lradius 58.3942
lwrist 19.7538
lhand 2.21921 -18.0849
lfingers 7.12502
lthumb 27.7142 9.89273
rfemur -54.7019 -11.5813 27.5606
rtibia 68.3013
rfoot 21.4782 6.6476
rtoes -5.59228
lfemur -42.6875 -9.02203 -1.21977
ltibia 68.0556
lfoot 19.1849 -18.1092
ltoes 4.44219
